#N canvas 436 117 659 361 10;
#X obj 373 231 bandedwg~;
#X obj 373 280 dac~;
#X obj 373 117 readsf~ 1;
#X obj 420 15 loadbang;
#X msg 420 37 \; pd dsp 1;
#X obj 373 258 *~ 0.5;
#X obj 390 185 loadbang;
#X msg 390 207 234.8;
#N canvas 0 22 450 300 noiseimpulse 0;
#X obj 173 61 noise~;
#X obj 173 197 *~;
#X obj 188 158 line;
#X floatatom 188 180 5 0 0 0 - - -, f 5;
#X msg 188 126 1 20;
#X msg 226 126 0 200;
#X obj 226 69 bng 15 250 50 0 empty empty empty 17 7 0 10 -262144 -1
-1;
#X obj 226 97 pipe;
#X msg 247 76 100;
#X obj 247 57 loadbang;
#X obj 173 229 *~ 0.05;
#X obj 226 24 inlet;
#X obj 173 251 outlet~;
#X connect 0 0 1 0;
#X connect 1 0 10 0;
#X connect 2 0 3 0;
#X connect 3 0 1 1;
#X connect 4 0 2 0;
#X connect 5 0 2 0;
#X connect 6 0 7 0;
#X connect 6 0 4 0;
#X connect 7 0 5 0;
#X connect 8 0 7 1;
#X connect 9 0 8 0;
#X connect 10 0 12 0;
#X connect 11 0 6 0;
#X restore 380 163 pd noiseimpulse;
#X obj 380 145 bng 15 250 50 0 empty empty empty 17 7 0 10 -262144
-1 -1;
#X text 31 74 Click to trigger the handpan with a recorded impulse
->;
#X text 31 211 Change the note here - - - - - - - - - - - - - - - -
->;
#X text 46 14 Physical Model of a Handpan instrument by Luis Diez Antich
\; To play it \, press one of the recorded impulses or the noise impulse.
;
#X text 31 144 Click bang to trigger handpan with noise impulse - -
->;
#X msg 373 72 open ../impulses/hangimpulse.wav \, 1;
#X msg 379 92 open ../impulses/noise_impulse_force.wav \, 1;
#X connect 0 0 5 0;
#X connect 2 0 0 0;
#X connect 3 0 4 0;
#X connect 5 0 1 0;
#X connect 5 0 1 1;
#X connect 6 0 7 0;
#X connect 7 0 0 1;
#X connect 8 0 0 0;
#X connect 9 0 8 0;
#X connect 14 0 2 0;
#X connect 15 0 2 0;
