#N canvas 436 117 785 525 10;
#X obj 42 179 noise~;
#X obj 42 315 *~;
#X obj 170 135 t b f;
#X floatatom 214 346 5 0 0 0 - - -, f 5;
#X floatatom 231 365 5 0 0 0 - - -, f 5;
#X floatatom 170 96 5 0 0 0 - - -, f 5;
#X obj 57 276 line;
#X floatatom 57 298 5 0 0 0 - - -, f 5;
#X msg 57 244 1 20;
#X msg 95 244 0 200;
#X obj 95 187 bng 15 250 50 0 empty empty empty 17 7 0 10 -262144 -1
-1;
#X obj 95 215 pipe;
#X msg 116 194 100;
#X obj 180 388 bandedwg~;
#X msg 217 98 440;
#X obj 33 359 env~;
#X floatatom 33 381 5 0 0 0 - - -, f 5;
#X obj 116 175 loadbang;
#X obj 180 461 dac~;
#X obj 180 439 *~ 0.5;
#X obj 383 144 readsf~ 1;
#X msg 390 99 open cosimpulse.wav;
#X msg 397 119 start;
#X obj 383 166 env~;
#X floatatom 383 188 5 0 0 0 - - -, f 5;
#X msg 390 79 open hangimpulse.wav;
#X connect 0 0 1 0;
#X connect 1 0 13 0;
#X connect 1 0 15 0;
#X connect 2 0 22 0;
#X connect 2 1 13 1;
#X connect 3 0 13 2;
#X connect 4 0 13 3;
#X connect 5 0 2 0;
#X connect 6 0 7 0;
#X connect 7 0 1 1;
#X connect 8 0 6 0;
#X connect 9 0 6 0;
#X connect 10 0 11 0;
#X connect 10 0 8 0;
#X connect 11 0 9 0;
#X connect 12 0 11 1;
#X connect 13 0 19 0;
#X connect 14 0 2 0;
#X connect 15 0 16 0;
#X connect 17 0 12 0;
#X connect 19 0 18 0;
#X connect 19 0 18 1;
#X connect 20 0 23 0;
#X connect 20 0 13 0;
#X connect 21 0 20 0;
#X connect 22 0 20 0;
#X connect 23 0 24 0;
#X connect 25 0 20 0;
